<svg width="89" height="52" fill="none" xmlns="http://www.w3.org/2000/svg"><path d="M20.9 51.9c-4.6 0-8.7-.725-12.3-2.175-3.55-1.45-6.35-3.35-8.4-5.7l6.525-8.775c1.7 1.7 3.8 3 6.3 3.9 2.55.9 5 1.35 7.35 1.35 2.7 0 4.775-.45 6.225-1.35 1.45-.9 2.175-2.075 2.175-3.525 0-1.45-.675-2.5-2.025-3.15-1.3-.7-3.6-1.05-6.9-1.05-4 0-6.25.025-6.75.075V20.025c.65.05 2.9.075 6.75.075 5.4 0 8.1-1.3 8.1-3.9 0-1.5-.775-2.625-2.325-3.375-1.55-.8-3.575-1.2-6.075-1.2-4.7 0-8.85 1.6-12.45 4.8l-6.225-8.1c4.8-5.4 11.475-8.1 20.025-8.1 6.3 0 11.175 1.25 14.625 3.75 3.5 2.45 5.25 5.775 5.25 9.975 0 2.85-1.075 5.325-3.225 7.425-2.1 2.05-4.675 3.325-7.725 3.825 3 .3 5.7 1.525 8.1 3.675 2.45 2.1 3.675 4.825 3.675 8.175 0 4.4-1.9 7.975-5.7 10.725-3.8 2.75-8.8 4.125-15 4.125zm61.767-.9H69.692v-9.15H45.767V31.8L64.742.975h17.925v29.55h6.075V41.85h-6.075V51zM69.692 30.525v-18.3l-11.4 18.3h11.4z" fill="#fff"/><path d="M20.9 51.9c-4.6 0-8.7-.725-12.3-2.175-3.55-1.45-6.35-3.35-8.4-5.7l6.525-8.775c1.7 1.7 3.8 3 6.3 3.9 2.55.9 5 1.35 7.35 1.35 2.7 0 4.775-.45 6.225-1.35 1.45-.9 2.175-2.075 2.175-3.525 0-1.45-.675-2.5-2.025-3.15-1.3-.7-3.6-1.05-6.9-1.05-4 0-6.25.025-6.75.075V20.025c.65.05 2.9.075 6.75.075 5.4 0 8.1-1.3 8.1-3.9 0-1.5-.775-2.625-2.325-3.375-1.55-.8-3.575-1.2-6.075-1.2-4.7 0-8.85 1.6-12.45 4.8l-6.225-8.1c4.8-5.4 11.475-8.1 20.025-8.1 6.3 0 11.175 1.25 14.625 3.75 3.5 2.45 5.25 5.775 5.25 9.975 0 2.85-1.075 5.325-3.225 7.425-2.1 2.05-4.675 3.325-7.725 3.825 3 .3 5.7 1.525 8.1 3.675 2.45 2.1 3.675 4.825 3.675 8.175 0 4.4-1.9 7.975-5.7 10.725-3.8 2.75-8.8 4.125-15 4.125zm61.767-.9H69.692v-9.15H45.767V31.8L64.742.975h17.925v29.55h6.075V41.85h-6.075V51zM69.692 30.525v-18.3l-11.4 18.3h11.4z" fill="url(#paint0_linear)"/><defs><linearGradient id="paint0_linear" x1="-1" y1="95" x2="113.112" y2="118.523" gradientUnits="userSpaceOnUse"><stop stop-color="#233D97"/><stop offset="1" stop-color="#192550"/></linearGradient></defs></svg>