<svg width="215" height="186" viewBox="0 0 215 186" fill="none" xmlns="http://www.w3.org/2000/svg">
<rect width="124.098" height="124" transform="matrix(0.866253 -0.499606 2.20537e-08 1 107.42 124)" fill="#24356E"/>
<rect width="124.098" height="124.098" transform="matrix(0.866253 0.499606 -0.866253 0.499606 107.5 0)" fill="url(#paint0_linear)"/>
<rect width="124.098" height="124" transform="matrix(0.866253 0.499606 -2.20537e-08 1 0 62)" fill="#233E97"/>
<g opacity="0.5" clip-path="url(#clip0)">
<path d="M82.6499 46.903C82.0016 47.2772 82.0025 47.8795 82.6499 48.2533C83.2524 48.6011 84.207 48.6289 84.8655 48.3173C85.6279 47.9567 85.6806 47.3025 84.9887 46.903C84.3404 46.5287 83.2972 46.5292 82.6499 46.903Z" fill="white"/>
<path d="M108.401 34.7372C105.174 36.6004 99.923 36.6004 96.6957 34.7372C96.0493 34.364 95.001 34.364 94.3546 34.7372L61.5787 53.6603C60.9323 54.0335 60.9323 54.6388 61.5787 55.012C64.806 56.8752 64.806 59.907 61.5787 61.7702C60.9323 62.1434 60.9323 62.7487 61.5787 63.1219L80.6812 74.1507C95.5681 82.7457 118.611 84.845 137.514 78.9667C137.657 78.9223 137.786 78.8665 137.9 78.8011C138.013 78.7357 138.11 78.6607 138.187 78.5784C148.146 67.9003 145.058 54.549 129.845 45.766L110.743 34.7372C110.096 34.364 109.048 34.364 108.401 34.7372ZM127.504 47.1176C141.486 55.1903 144.673 67.3325 135.505 77.4185C118.175 82.6693 96.928 80.8275 83.0223 72.7991L65.0071 62.398C68.0755 60.032 68.0755 56.7503 65.0071 54.3843L95.6085 36.7165C99.7065 38.4881 105.391 38.4881 109.489 36.7165L127.504 47.1176Z" fill="white"/>
<path d="M107.993 39.3651C104.482 40.1572 100.616 40.1572 97.1059 39.3651C96.4935 39.227 95.7977 39.311 95.3327 39.5795L87.3296 44.2001C86.6832 44.5733 86.6832 45.1786 87.3296 45.5518C87.9759 45.9249 89.0243 45.9249 89.6707 45.5518L96.9337 41.3584C100.591 42.0421 104.507 42.0421 108.165 41.3585L122.822 49.821C134.278 56.4348 137.285 66.1119 130.56 74.5632C115.922 78.4458 99.1608 76.7096 87.7053 70.0958L73.0478 61.6333C74.2319 59.5215 74.2319 57.2607 73.0478 55.149L80.3108 50.9557C80.9572 50.5825 80.9572 49.9772 80.3108 49.604C79.6645 49.2308 78.6161 49.2308 77.9697 49.604L69.9665 54.2246C69.5016 54.4931 69.3561 54.8949 69.5952 55.2484C70.9673 57.275 70.9673 59.5072 69.5952 61.5338C69.3561 61.8874 69.5017 62.2892 69.9665 62.5576L85.3642 71.4474C97.9142 78.6932 116.614 80.5266 132.518 76.1445C132.689 76.0974 132.844 76.0341 132.976 75.9578C133.108 75.8815 133.218 75.7924 133.299 75.6936C140.883 66.5192 137.724 55.7209 125.163 48.4693L109.766 39.5795C109.301 39.311 108.605 39.227 107.993 39.3651Z" fill="white"/>
<path d="M107.934 55.1376C107.019 55.1377 106.278 55.5655 106.278 56.0934L106.278 61.8958L103.251 61.8959C102.337 61.896 101.596 62.3238 101.596 62.8517C101.596 63.3795 102.337 63.8075 103.251 63.8075L107.934 63.8075C108.391 63.8073 108.805 63.7005 109.104 63.5275C109.404 63.3545 109.589 63.1156 109.589 62.8517L109.589 56.0934C109.589 55.5656 108.848 55.1376 107.934 55.1376Z" fill="white"/>
</g>
<defs>
<linearGradient id="paint0_linear" x1="124.006" y1="0.0917671" x2="49.6024" y2="148.899" gradientUnits="userSpaceOnUse">
<stop stop-color="#24356E"/>
<stop offset="1" stop-color="#2644A8"/>
</linearGradient>
<clipPath id="clip0">
<rect width="69.2047" height="69.2047" fill="white" transform="matrix(0.866025 -0.5 0.866025 0.5 48 61.5)"/>
</clipPath>
</defs>
</svg>
