<svg width="215" height="186" viewBox="0 0 215 186" fill="none" xmlns="http://www.w3.org/2000/svg">
<rect width="124.098" height="124" transform="matrix(0.866253 -0.499606 2.20537e-08 1 107.42 124)" fill="#24356E"/>
<rect width="124.098" height="124.098" transform="matrix(0.866253 0.499606 -0.866253 0.499606 107.5 0)" fill="url(#paint0_linear)"/>
<rect width="124.098" height="124" transform="matrix(0.866253 0.499606 -2.20537e-08 1 0 62)" fill="#233E97"/>
<g opacity="0.5" clip-path="url(#clip0)">
<path d="M140.321 43.0377L140.321 43.0378L140.327 43.0413C142.478 44.2832 142.976 46.0996 141.593 47.6646L141.32 47.5842L141.593 47.6646L131.851 58.6849L133.357 59.5542C134.161 60.0183 134.161 60.7708 133.357 61.2348C132.553 61.6988 131.25 61.6989 130.446 61.2348L127.882 59.7545C127.251 59.3904 127.099 58.8328 127.504 58.374L127.777 58.4544L127.504 58.374L137.926 46.5841C138.602 45.8188 138.114 45.1244 137.416 44.7216L137.416 44.7216L137.416 44.7216L137.416 44.7216L137.416 44.7216L137.416 44.7215L137.416 44.7215L137.416 44.7215L137.416 44.7215L137.416 44.7215L137.416 44.7215L137.416 44.7214L137.416 44.7214L137.416 44.7214L137.416 44.7214L137.416 44.7214L137.416 44.7214L137.416 44.7213L137.416 44.7213L137.415 44.7213L137.415 44.7213L137.415 44.7213L137.415 44.7213L137.415 44.7212L137.415 44.7212L137.415 44.7212L137.415 44.7212L137.415 44.7212L137.415 44.7212L137.415 44.7211L137.415 44.7211L137.415 44.7211L137.415 44.7211L137.415 44.7211L137.415 44.7211L137.415 44.721L137.415 44.721L137.415 44.721L137.415 44.721L137.415 44.721L137.415 44.721L137.415 44.721L137.415 44.7209L137.415 44.7209L137.415 44.7209L137.415 44.7209L137.415 44.7209L137.415 44.7209L137.415 44.7208L137.415 44.7208L137.415 44.7208L137.415 44.7208L137.415 44.7208L137.415 44.7208L137.414 44.7207L137.414 44.7207L137.414 44.7207L137.414 44.7207L137.414 44.7207L137.414 44.7207L137.414 44.7206L137.414 44.7206L137.414 44.7206L137.414 44.7206L137.414 44.7206L137.414 44.7206L137.414 44.7205L137.414 44.7205L137.414 44.7205L137.414 44.7205L137.414 44.7205L137.414 44.7205L137.414 44.7204L137.414 44.7204L137.414 44.7204L137.414 44.7204L137.414 44.7204L137.414 44.7204L137.414 44.7203L137.414 44.7203L137.414 44.7203L137.414 44.7203L140.321 43.0377ZM140.321 43.0377C138.165 41.7958 135.014 41.5115 132.304 42.3147L113.269 47.9566L98.0886 39.192C95.9356 37.9489 92.7862 37.6623 90.0753 38.4628C87.3645 39.2632 85.9234 40.9051 86.4087 42.6406L89.8327 54.8847L70.6784 60.5075C67.9652 61.3039 66.5175 62.9434 66.9942 64.6788C67.2319 65.544 67.9124 66.3025 68.9115 66.8794C69.9131 67.4577 71.2309 67.8509 72.7338 67.987L93.9652 69.9117L97.3078 82.1104C97.7835 83.8469 100.04 85.1477 103.047 85.4204C106.055 85.6931 108.893 84.854 110.268 83.2854L119.923 72.267L141.112 74.2166C144.116 74.4931 146.955 73.6592 148.338 72.0949C149.72 70.5307 149.222 68.7138 147.071 67.4721L144.508 65.9918C143.704 65.5277 142.4 65.5278 141.597 65.9918C140.793 66.4558 140.793 67.2083 141.597 67.6724L144.16 69.1527C145.213 69.76 145.118 70.5079 144.671 71.0149C144.223 71.5218 143.229 72.0048 141.76 71.8696L119.088 69.7835C118.205 69.7022 117.332 69.9598 116.928 70.4205L116.928 70.4206L106.594 82.2124C105.922 82.9797 104.661 83.1608 103.686 83.0725C102.711 82.984 101.606 82.5884 101.374 81.7391L97.797 68.6864C97.797 68.6863 97.797 68.6863 97.797 68.6863C97.6577 68.177 96.9651 67.7779 96.0831 67.698L73.3719 65.6392C71.9014 65.5059 71.2145 64.8689 71.06 64.3065L71.0599 64.3064C70.9052 63.744 71.2167 63.0157 72.5438 62.6261L93.0367 56.6104C93.8342 56.3763 94.2784 55.8716 94.1358 55.3617L90.4724 42.2619C90.2353 41.4129 91.071 40.8383 91.9497 40.5788C92.8282 40.3194 94.1245 40.2645 95.1777 40.8726L111.419 50.2496C112.052 50.6147 113.019 50.7022 113.815 50.4665L113.815 50.4665M140.321 43.0377L113.815 50.4665M113.815 50.4665L134.184 44.429C135.51 44.0362 136.714 44.3177 137.414 44.7202L113.815 50.4665Z" fill="white" stroke="white" stroke-width="0.5"/>
<path d="M76.5011 78.2562C75.6974 78.7202 75.6972 79.4727 76.5011 79.9368C77.3049 80.4009 78.6082 80.4008 79.4119 79.9368L89.432 74.1517C90.2357 73.6877 90.2358 72.9353 89.432 72.4712C88.6281 72.0071 87.3248 72.0071 86.5211 72.4712L76.5011 78.2562Z" fill="white" stroke="white" stroke-width="0.5"/>
<path d="M128.301 84.4075L128.301 84.4074L121.867 77.1178L121.867 77.1178C121.351 76.5331 121.754 75.8174 122.767 75.5195L128.301 84.4075ZM128.301 84.4075C128.401 84.5214 128.53 84.6223 128.679 84.7085C129.292 85.0626 130.254 85.1665 131.069 84.9267L131.069 84.9267C132.082 84.6288 132.485 83.9131 131.969 83.3284L131.969 83.3284L125.535 76.0388L125.535 76.0387M128.301 84.4075L125.535 76.0387M125.535 76.0387C125.019 75.4545 123.78 75.2215 122.767 75.5195L125.535 76.0387Z" fill="white" stroke="white" stroke-width="0.5"/>
<path d="M138.089 58.1572L138.089 58.1572C138.16 58.4145 138.369 58.6398 138.665 58.8111C139.115 59.0705 139.767 59.207 140.444 59.145L154.44 57.8651L154.392 57.6905L154.44 57.8651C155.563 57.7625 156.329 57.1538 156.151 56.5055C155.973 55.8572 154.919 55.4151 153.796 55.5177L153.796 55.5177L139.8 56.7976L139.8 56.7976C138.677 56.9002 137.911 57.5089 138.089 58.1572Z" fill="white" stroke="white" stroke-width="0.5"/>
<path d="M117.084 33.9503C115.961 33.8477 114.906 34.29 114.729 34.9382L114.729 34.9382L112.512 43.0187L112.512 43.0187C112.405 43.4096 112.641 43.7861 113.09 44.0456C113.387 44.2169 113.777 44.3377 114.223 44.3784L114.223 44.3784C115.345 44.481 116.4 44.0388 116.578 43.3906L116.275 43.3629L116.578 43.3905L118.795 35.3099C118.795 35.3099 118.795 35.3099 118.795 35.3099C118.972 34.6618 118.207 34.0529 117.084 33.9503ZM117.084 33.9503L117.036 34.1249L117.084 33.9503Z" fill="white" stroke="white" stroke-width="0.5"/>
<path d="M67.8588 48.4316L67.8587 48.4316C67.4435 48.9023 67.6233 49.4573 68.2367 49.8115C68.386 49.8977 68.5609 49.9719 68.7582 50.03L68.7583 50.03L81.3841 53.7442L81.3841 53.7442C82.3969 54.0421 83.6365 53.8096 84.1525 53.2248C84.6686 52.64 84.266 51.9245 83.2531 51.6264L83.253 51.6264L70.6271 47.9122L70.6271 47.9122C69.6142 47.6143 68.3748 47.8469 67.8588 48.4316Z" fill="white" stroke="white" stroke-width="0.5"/>
<path d="M135.42 63.6136C135.42 63.6137 135.42 63.6137 135.42 63.6137C135.42 63.9267 135.64 64.2327 136.023 64.454C136.406 64.6753 136.937 64.8019 137.479 64.8019C138.02 64.8019 138.551 64.6753 138.934 64.454C139.317 64.2327 139.537 63.9266 139.536 63.6137C139.537 63.3007 139.317 62.9947 138.934 62.7734C138.549 62.5513 138.02 62.4256 137.478 62.4256L135.42 63.6136ZM135.42 63.6136C135.421 63.3008 135.64 62.9947 136.023 62.7734C136.406 62.5521 136.937 62.4255 137.478 62.4256L135.42 63.6136Z" fill="white" stroke="white" stroke-width="0.5"/>
</g>
<defs>
<linearGradient id="paint0_linear" x1="124.006" y1="0.0917671" x2="49.6024" y2="148.899" gradientUnits="userSpaceOnUse">
<stop stop-color="#24356E"/>
<stop offset="1" stop-color="#2644A8"/>
</linearGradient>
<clipPath id="clip0">
<rect width="73.2461" height="73.2461" fill="white" transform="matrix(0.866025 0.5 -0.866025 0.5 108.434 24.877)"/>
</clipPath>
</defs>
</svg>
