<svg width="215" height="236" fill="none" xmlns="http://www.w3.org/2000/svg"><path d="M107.42 124l107.5-62v174.5l-107.5 62V124z" fill="#24356E"/><path transform="matrix(.86625 .4996 -.86625 .4996 107.5 0)" fill="url(#paint0_linear)" d="M0 0h124.098v124.098H0z"/><path d="M0 62l107.5 62v176.5L0 238.5V62z" fill="#233E97"/><g opacity=".5" clip-path="url(#clip0)" fill="#fff"><path d="M134.322 73.1l-7.546 4.357c-1.761 1.017-5.282 1.307-8.3-.436l-5.282-3.05c-2.516-1.451-6.037-2.032-9.81-1.887-8.049.58-15.343-1.017-20.876-4.211-9.307-5.664-9.055-14.522 0-20.04 4.779-2.76 11.067-4.357 17.606-4.357 6.54 0 13.08 1.452 17.859 4.211 5.282 3.05 8.048 7.261 7.042 11.618-.503 2.323 1.006 4.647 3.522 6.099l5.785 3.34c2.012 1.162 2.012 3.195 0 4.356zM85.274 49.14c-8.049 4.646-8.049 12.488-.251 17.28 4.779 2.76 11.319 4.212 17.858 3.63 5.031-.29 9.558.582 12.828 2.47l5.282 3.05c.503.29 2.012 1.16 3.27.435l7.545-4.357c.755-.435.755-1.016 0-1.452l-5.785-3.34c-3.269-1.888-5.03-4.937-4.527-7.842.755-3.63-1.509-7.26-6.037-9.875-4.024-2.323-9.306-3.63-15.343-3.63-5.533 0-10.815 1.307-14.84 3.63z"/><path d="M129.291 67.292l-12.577 7.26a2.583 2.583 0 01-2.515 0c-.755-.435-.755-1.016 0-1.451l12.576-7.261a2.585 2.585 0 012.516 0c.754.435.754 1.016 0 1.452zM77.73 44.783a2.584 2.584 0 01-2.516 0l-5.03-2.905c-.755-.435-.755-1.016 0-1.452a2.584 2.584 0 012.515 0l5.03 2.905c.755.435.755 1.016 0 1.452zM101.624 39.12c-.251.145-.754.435-1.257.435-1.006 0-1.761-.436-1.761-1.017v-4.066c0-.58.755-1.016 1.761-1.016 1.006 0 1.76.435 1.76 1.016v4.066s-.251.436-.503.581zM130.549 41.878l-5.03 2.905a2.583 2.583 0 01-2.515 0c-.755-.436-.755-1.017 0-1.452l5.03-2.905a2.583 2.583 0 012.515 0c.755.436.755 1.017 0 1.452zM142.37 58.578c-.251.146-.754.436-1.257.436h-7.043c-1.006 0-1.761-.436-1.761-1.016 0-.581.755-1.017 1.761-1.017h7.043c1.006 0 1.76.436 1.76 1.017.252.145 0 .29-.503.58zM101.624 82.104c-.251.145-.754.436-1.257.436-1.006 0-1.761-.436-1.761-1.017v-4.066c0-.58.755-1.016 1.761-1.016 1.006 0 1.76.435 1.76 1.016v4.066c0 .29-.251.436-.503.581zM77.73 72.374l-5.031 2.905a2.584 2.584 0 01-2.516 0c-.754-.436-.754-1.017 0-1.452l5.03-2.905a2.584 2.584 0 012.516 0c.755.436.755 1.017 0 1.453zM67.919 58.579c-.252.145-.755.435-1.258.435l-7.294-.145c-1.006 0-1.76-.436-1.76-1.017 0-.58.754-1.016 1.76-1.016h7.042c1.007 0 1.761.436 1.761 1.017 0 .29 0 .58-.251.726zM111.684 52.77a2.583 2.583 0 01-2.515 0c-4.779-2.76-12.828-2.76-17.607 0a2.583 2.583 0 01-2.515 0c-.755-.436-.755-1.017 0-1.452 6.288-3.63 16.349-3.63 22.637 0 .755.436.755 1.016 0 1.452z"/></g><defs><linearGradient id="paint0_linear" x1="124.006" y1=".092" x2="49.602" y2="148.899" gradientUnits="userSpaceOnUse"><stop stop-color="#24356E"/><stop offset="1" stop-color="#2644A8"/></linearGradient><clipPath id="clip0"><path fill="#fff" transform="matrix(.86603 -.5 .86603 .5 40 57.852)" d="M0 0h69.705v69.705H0z"/></clipPath></defs></svg>