<svg width="215" height="236" fill="none" xmlns="http://www.w3.org/2000/svg"><path d="M107.42 124l107.5-62v176l-107.5 62V124z" fill="#24356E"/><path transform="matrix(.86625 .4996 -.86625 .4996 107.5 0)" fill="url(#paint0_linear)" d="M0 0h124.098v124.098H0z"/><path d="M0 62l107.5 62v175L0 237V62z" fill="#233E97"/><g opacity=".5" clip-path="url(#clip0)" fill="#fff"><path d="M136.094 72.42c-.65.376-.65.985 0 1.36.65.376 1.705.376 2.355 0 .65-.375.65-.984 0-1.36-.65-.375-1.705-.375-2.355 0z"/><path d="M104.766 35.295l-3.533 2.04-1.884-1.088c-1.948-1.125-5.118-1.125-7.066 0L64.017 52.566c-1.948 1.125-1.948 2.955 0 4.08l1.885 1.088-3.533 2.04c-1.949 1.124-1.949 2.954 0 4.08 7.662 4.423 16.877 5.604 24.261 3.15 6.383 1.383 13.266 1.717 19.964.964 1.542-.174 3.156.122 4.315.792l6.489 3.746c-.6.586-.921 1.256-.921 1.954 0 1.028.693 1.994 1.951 2.72l-1.178.68c-1.948 1.125-1.948 2.955 0 4.08l7.066 4.08c.651.375 1.706.375 2.356 0l23.554-13.6c.651-.375.651-.984 0-1.36l-7.066-4.079c-1.948-1.125-5.118-1.125-7.066 0l-1.178.68c-2.191-1.265-5.541-1.463-8.095-.594l-6.484-3.743c-1.164-.672-1.678-1.605-1.377-2.496 1.306-3.867.728-7.841-1.668-11.526 4.248-4.263 2.202-9.584-5.459-14.007-1.949-1.125-5.118-1.125-7.067 0zM64.724 62.493c-.65-.375-.65-.985 0-1.36l3.533-2.04 5.265 3.04c2.684 1.55 5.72 2.833 9.054 3.831-5.604 1.092-12.064-.129-17.852-3.47zm73.725 5.848c.649-.375 1.706-.375 2.355 0l5.889 3.4-21.199 12.239-5.888-3.4c-.65-.375-.65-.985 0-1.36l18.843-10.88zm-31.951-25.247c3.217 1.858 5.707 4.035 7.4 6.471 2.409 3.466 3.029 7.233 1.793 10.895-.514 1.52.342 3.098 2.291 4.223l7.512 4.338c.651.375 1.705.375 2.356 0 1.298-.75 3.412-.75 4.71 0l-11.777 6.8c-.628-.364-.974-.846-.975-1.36 0-.49.314-.95.885-1.306a1.33 1.33 0 00.095-.051c.651-.376.646-.988-.005-1.363l-7.518-4.341c-1.945-1.123-4.677-1.616-7.309-1.32-6.341.714-12.866.356-18.87-1.035-4.22-.977-7.991-2.414-11.209-4.272l-9.504-5.487c-.65-.375-.65-.985 0-1.36l28.265-16.319c.65-.375 1.706-.375 2.355 0l9.505 5.487zm8.991 3.868c-1.73-1.926-3.952-3.678-6.636-5.228l-5.264-3.04 3.533-2.039c.649-.375 1.706-.375 2.355 0 5.788 3.341 7.903 7.071 6.012 10.307z"/><path d="M101.387 47.06c-.565-.166-1.245-.133-1.753.086l-5.82 2.508-6.88-1.347c-.6-.117-1.264-.028-1.713.231-.448.259-.603.642-.4.989l2.334 3.972-4.345 3.36c-.38.294-.437.686-.15 1.012.289.326.872.53 1.506.525l7.264-.054 4.194 3.424c.366.3.995.452 1.62.395.627-.057 1.143-.315 1.33-.664l2.156-4.005 6.937-1.245c.609-.11 1.052-.409 1.151-.768.099-.361-.166-.724-.684-.935l-5.932-2.421.094-4.194c.008-.366-.344-.703-.909-.87zm-2.527 5.543c-.007.317.256.615.704.798l3.891 1.588-4.55.817c-.523.094-.933.33-1.096.633l-1.413 2.626-2.752-2.246c-.317-.259-.833-.41-1.381-.407l-4.764.036 2.85-2.204c.327-.254.418-.584.242-.884l-1.53-2.606 4.512.884c.52.102 1.092.05 1.532-.14l3.817-1.645-.062 2.75zM131.383 75.14l-4.711 2.72c-.65.376-.651.985 0 1.36.65.376 1.705.376 2.355 0l4.711-2.72c.65-.375.651-.984 0-1.36-.65-.375-1.705-.375-2.355 0zM153.054 66.708l.657-.379c-.401.155-.633.281-.657.38z"/></g><defs><linearGradient id="paint0_linear" x1="124.006" y1=".092" x2="49.602" y2="148.899" gradientUnits="userSpaceOnUse"><stop stop-color="#24356E"/><stop offset="1" stop-color="#2644A8"/></linearGradient><clipPath id="clip0"><path fill="#fff" transform="matrix(.86603 -.5 .86603 .5 48 61.813)" d="M0 0h69.627v69.627H0z"/></clipPath></defs></svg>