<svg width="215" height="283" fill="none" xmlns="http://www.w3.org/2000/svg"><path d="M107.42 124l107.5-62 .079 221.5-107.5 62-.079-221.5z" fill="#B12E29"/><path transform="matrix(.86625 .4996 -.86625 .4996 107.5 0)" fill="url(#paint0_linear)" d="M0 0h124.098v124.098H0z"/><path d="M0 62l107.5 62v221L0 283V62z" fill="#E04E49"/><g clip-path="url(#clip0)" fill="#fff"><path d="M80.464 35.208c-.645.373-.645.978 0 1.35l5.38 3.106c.646.373 1.693.373 2.339 0 .646-.372.646-.977 0-1.35l-5.38-3.106c-.645-.373-1.693-.373-2.339 0zM90.054 71.804c-.645.373-.645.978 0 1.35.646.373 1.694.373 2.34 0 .645-.372.645-.977 0-1.35-.646-.372-1.694-.372-2.34 0z"/><path d="M130.987 45.471c-2.58-1.489-6.777-1.489-9.356 0l-8.731 5.041c-2.11-2.78-5.638-5.448-9.371-7.481-.712-.388-1.139-.604-1.427-.729-2.588-1.424-6.701-1.403-9.24.064-2.58 1.489-2.58 3.912 0 5.401l1.169.675c7.396 4.27 2.054 12.154-3.332 17.321-1.78-.402-3.886-.19-5.323.64l-11.695 6.752c-.645.373-.645.977 0 1.35L101.75 90.71c.646.373 1.693.373 2.339 0l11.695-6.752c1.427-.824 1.8-2.028 1.122-3.052.746-.255 1.441-.49 2.082-.707 5.15-1.742 7.986-2.701 13.457-5.86l12.576-7.26c2.58-1.49 2.58-3.913 0-5.402-.961-.556-2.148-.904-3.392-1.045 1.175-1.408.773-3.169-1.286-4.357-.958-.553-2.14-.907-3.386-1.051 1.166-1.404.767-3.162-1.292-4.35-.961-.556-2.148-.904-3.392-1.045 1.175-1.408.773-3.17-1.285-4.358zm-17.543 35.786c.645.373.645.978 0 1.35l-10.525 6.078L77.19 73.83l10.525-6.077c.645-.372 1.694-.372 2.34 0l23.389 13.504zm15.204-31.734l-5.848 3.376c-.646.373-.646.977 0 1.35.646.373 1.693.373 2.339 0l3.509-2.025c1.289-.745 3.388-.745 4.678 0 1.291.745 1.291 1.955 0 2.7l-5.848 3.376c-.646.373-.646.978 0 1.35.646.374 1.693.374 2.339 0l3.509-2.025c1.274-.736 3.357-.762 4.677 0 1.292.746 1.292 1.955 0 2.701l-5.847 3.376c-.646.373-.646.978 0 1.35.646.373 1.693.373 2.339 0l3.508-2.025c1.29-.745 3.389-.745 4.678 0 1.29.745 1.29 1.956 0 2.7l-12.576 7.262c-5.17 2.985-7.717 3.846-12.79 5.562-.743.251-1.558.527-2.443.83l-21.54-12.436c6.447-6.05 11.775-14.808 3.038-19.853l-1.17-.675c-1.29-.745-1.29-1.956 0-2.701 1.287-.743 3.384-.744 4.674-.002l.004.002c.508.294 7.38 3.529 10.487 8.26l-3.938 2.273c-.646.373-.646.978 0 1.35.646.373 1.693.373 2.339 0 .817-.47 13.871-8.007 15.204-8.777 1.289-.745 3.388-.745 4.678 0 1.291.746 1.291 1.955 0 2.7z"/><path d="M94.732 74.505c-.646.373-.646.978 0 1.35l9.356 5.402c.646.373 1.693.373 2.339 0 .646-.373.646-.978 0-1.35l-9.356-5.402c-.646-.373-1.693-.373-2.339 0zM85.844 49.118l-4.678 2.7c-.646.373-.646.978 0 1.35.645.374 1.693.374 2.339 0l4.678-2.7c.645-.373.645-.978 0-1.35-.646-.373-1.694-.373-2.34 0zM109.234 35.613l-4.678 2.701c-.646.373-.646.978 0 1.35.646.373 1.693.373 2.339 0l4.678-2.7c.646-.373.646-.978 0-1.35-.646-.374-1.693-.374-2.339 0zM96.369 31.978c-.914 0-1.654.427-1.654.955v3.819c0 .527.74.954 1.654.955.913 0 1.653-.428 1.654-.955v-3.82c0-.526-.74-.954-1.654-.954zM83.137 43.436h-6.615c-.913 0-1.653.428-1.654.955 0 .527.741.955 1.654.955h6.615c.914 0 1.654-.428 1.654-.955 0-.527-.74-.955-1.654-.955z"/></g><defs><linearGradient id="paint0_linear" x1="124.098" y1="0" x2="49.694" y2="148.925" gradientUnits="userSpaceOnUse"><stop stop-color="#B12E29"/><stop offset="1" stop-color="#EC6863"/></linearGradient><clipPath id="clip0"><path fill="#fff" transform="matrix(.86603 -.5 .86603 .5 40 58.57)" d="M0 0h69.141v69.141H0z"/></clipPath></defs></svg>