<svg width="24" height="24" viewBox="0 0 24 24" fill="none" xmlns="http://www.w3.org/2000/svg">
<path d="M4 4H20C21.1 4 22 4.9 22 6V18C22 19.1 21.1 20 20 20H4C2.9 20 2 19.1 2 18V6C2 4.9 2.9 4 4 4Z" fill="#C4C4C4"/>
<path d="M4 4H20C21.1 4 22 4.9 22 6V18C22 19.1 21.1 20 20 20H4C2.9 20 2 19.1 2 18V6C2 4.9 2.9 4 4 4Z" fill="url(#paint0_linear)"/>
<mask id="mask0" mask-type="alpha" maskUnits="userSpaceOnUse" x="2" y="4" width="20" height="16">
<path d="M4 4H20C21.1 4 22 4.9 22 6V18C22 19.1 21.1 20 20 20H4C2.9 20 2 19.1 2 18V6C2 4.9 2.9 4 4 4Z" fill="#C4C4C4"/>
<path d="M4 4H20C21.1 4 22 4.9 22 6V18C22 19.1 21.1 20 20 20H4C2.9 20 2 19.1 2 18V6C2 4.9 2.9 4 4 4Z" fill="url(#paint1_linear)"/>
</mask>
<g mask="url(#mask0)">
<path d="M22 6L12 13L2 6" stroke="white" stroke-linecap="round" stroke-linejoin="round"/>
</g>
<defs>
<linearGradient id="paint0_linear" x1="2" y1="20" x2="21.2479" y2="20.8587" gradientUnits="userSpaceOnUse">
<stop stop-color="#233D97"/>
<stop offset="1" stop-color="#192550"/>
</linearGradient>
<linearGradient id="paint1_linear" x1="2" y1="20" x2="21.2479" y2="20.8587" gradientUnits="userSpaceOnUse">
<stop stop-color="#233D97"/>
<stop offset="1" stop-color="#192550"/>
</linearGradient>
</defs>
</svg>
