<svg width="113" height="82" viewBox="0 0 113 82" fill="none" xmlns="http://www.w3.org/2000/svg">
<path opacity="0.1" d="M58.9082 60.3818C58.9082 48.9515 63.1071 37.5212 71.5049 26.0909C79.9027 14.6606 90.0295 5.96363 101.885 0L113 12.3C96.9454 20.5 86.5716 30.9364 81.8787 43.6091C82.3727 43.3606 83.4842 43.2364 85.2131 43.2364C89.412 43.2364 92.9934 44.8515 95.9574 48.0818C99.1683 51.0636 100.774 55.0394 100.774 60.0091C100.774 65.9727 98.5508 71.1909 94.1049 75.6636C89.659 79.8879 84.4721 82 78.5443 82C72.8634 82 68.1705 80.1364 64.4656 76.4091C60.7607 72.6818 58.9082 67.3394 58.9082 60.3818ZM0 60.3818C0 48.9515 4.19891 37.5212 12.5967 26.0909C20.9945 14.6606 31.1213 5.96363 42.977 0L54.0918 12.3C37.5432 20.7485 27.1694 31.1849 22.9705 43.6091C23.2175 43.3606 24.2055 43.2364 25.9344 43.2364C30.3803 43.2364 34.0852 44.8515 37.0492 48.0818C40.2601 51.0636 41.8656 55.0394 41.8656 60.0091C41.8656 65.9727 39.6426 71.1909 35.1967 75.6636C30.7508 79.8879 25.5639 82 19.6361 82C13.9552 82 9.2623 80.1364 5.55738 76.4091C1.85246 72.6818 0 67.3394 0 60.3818Z" fill="#24356E"/>
</svg>
