<svg width="300" height="300" fill="none" xmlns="http://www.w3.org/2000/svg"><path d="M150 23.443a5.841 5.841 0 00-5.854 5.854 5.837 5.837 0 005.268 5.823 5.842 5.842 0 006.44-5.823A5.842 5.842 0 00150 23.443z" fill="#000"/><path d="M267.188 35.156c-16.155 0-29.297-13.142-29.297-29.297A5.86 5.86 0 00232.031 0H67.969a5.86 5.86 0 00-5.86 5.86c0 16.154-13.142 29.296-29.297 29.296a5.86 5.86 0 00-5.859 5.86v95.619c0 74.518 48.571 141.29 121.364 163.118a5.88 5.88 0 003.366 0c71.216-21.363 121.364-86.97 121.364-163.118v-95.62a5.86 5.86 0 00-5.859-5.859zm-5.86 101.479c0 69.989-44.661 130.601-111.328 151.378-66.136-20.612-111.328-81.772-111.328-151.378V46.458c17.936-2.577 32.162-16.803 34.739-34.74h153.178c2.577 17.937 16.803 32.163 34.739 34.74v90.177z" fill="#000"/><path d="M246.101 54.193a52.78 52.78 0 01-27.247-27.247 5.86 5.86 0 00-5.368-3.509h-40.06a5.86 5.86 0 000 11.72h36.355a64.418 64.418 0 0028.11 28.108v73.37c0 57.341-34.424 106.818-87.891 126.623-53.467-19.806-87.89-69.282-87.89-126.623v-73.37a64.418 64.418 0 0028.109-28.109h36.355a5.86 5.86 0 000-11.718h-40.06a5.86 5.86 0 00-5.367 3.508 52.78 52.78 0 01-27.248 27.247 5.86 5.86 0 00-3.508 5.368v77.074c0 62.82 38.854 117.57 97.654 138.378a5.854 5.854 0 003.91 0c58.751-20.791 97.654-75.507 97.654-138.378V59.561a5.86 5.86 0 00-3.508-5.368z" fill="#000"/><path d="M177.581 122.419a5.86 5.86 0 00-8.287 0l-25.153 25.153-7.576-7.575a5.859 5.859 0 10-8.286 8.287l11.718 11.719a5.848 5.848 0 004.144 1.716c1.5 0 2.999-.573 4.143-1.716l29.297-29.297a5.86 5.86 0 000-8.287z" fill="#000"/></svg>