<svg width="300" height="300" fill="none" xmlns="http://www.w3.org/2000/svg"><g clip-path="url(#clip0)" fill="#fff" stroke="#fff" stroke-width=".5"><path d="M149.79-.25h0c-9.85.012-18.168 6.082-21.183 15.46L106.53 83.865H34.17c-9.846 0-18.17 6.057-21.199 15.426-3.028 9.369.175 19.153 8.158 24.917l58.704 42.383-22.44 68.86c-3.05 9.359.128 19.148 8.092 24.931 3.976 2.887 8.533 4.332 13.092 4.332 4.57 0 9.139-1.453 13.12-4.354l58.544-42.654 58.323 42.39c7.966 5.79 18.26 5.783 26.218-.015 7.959-5.798 11.12-15.596 8.05-24.952l-22.472-68.498 58.547-42.45c7.963-5.774 11.15-15.555 8.114-24.912-3.034-9.356-11.356-15.405-21.192-15.405h-12.125a6.11 6.11 0 000 12.22h12.125c5.392 0 8.477 3.585 9.57 6.955 1.093 3.371.7 8.085-3.664 11.25l-62.155 45.067a6.108 6.108 0 00-2.219 6.85l.237-.078-.237.078 23.861 72.732c1.682 5.129-.768 9.179-3.635 11.268-2.868 2.089-7.474 3.18-11.84.007l-61.919-45.004a6.107 6.107 0 00-7.189.004l-62.138 45.273c-4.36 3.176-8.967 2.093-11.836.009l-.147.203.147-.203c-2.87-2.083-5.326-6.127-3.655-11.257l23.82-73.099a6.108 6.108 0 00-2.232-6.846l-62.317-44.991c-4.375-3.16-4.774-7.877-3.683-11.252 1.09-3.375 4.175-6.966 9.573-6.966h76.813a6.11 6.11 0 005.816-4.24l-.238-.076.238.076 23.439-72.895c1.653-5.14 6.017-6.977 9.565-6.981H149.817c3.546 0 7.907 1.827 9.57 6.958l.238-.077-.238.077 23.645 72.933a6.11 6.11 0 005.812 4.225h12.125a6.11 6.11 0 000-12.219h-7.683L171.01 15.158C167.975 5.797 159.656-.25 149.819-.25h-.029z"/><path d="M143.891 294.141a6.11 6.11 0 0012.218 0v-47.389a6.109 6.109 0 10-12.218 0v47.389zM291.04 196.107h0l-45.069-14.644h0a6.108 6.108 0 01-3.922-7.698l48.991 22.342zm0 0a6.125 6.125 0 001.889.301 6.112 6.112 0 005.809-4.224l-.237-.077m-7.461 4l7.461-4m0 0l.237.077a6.11 6.11 0 00-3.922-7.698l-.077.238.077-.238-45.069-14.644h0a6.111 6.111 0 00-7.698 3.923l56.452 18.342zM233.393 18.683h0l-27.855 38.339a6.11 6.11 0 001.352 8.533l.147-.202-.147.203a6.082 6.082 0 003.586 1.167 6.1 6.1 0 004.947-2.519s0 0 0 0l27.855-38.338a6.11 6.11 0 00-9.885-7.183zM58.075 17.332a6.11 6.11 0 00-1.351 8.534h0l27.854 38.338.202-.147-.202.147a6.102 6.102 0 004.948 2.519 6.11 6.11 0 004.937-9.7l-27.854-38.34a6.108 6.108 0 00-8.534-1.35zm0 0l.147.203-.147-.203zM1.261 192.184h0a6.112 6.112 0 005.81 4.224c.626 0 1.262-.098 1.89-.301h0l45.068-14.644-.077-.237.077.237a6.109 6.109 0 10-3.776-11.621h0l-45.07 14.644h0a6.11 6.11 0 00-3.922 7.698zM221.229 89.977c0 1.607.653 3.182 1.79 4.319a6.15 6.15 0 004.319 1.79 6.152 6.152 0 004.319-1.79 6.152 6.152 0 001.79-4.32 6.15 6.15 0 00-1.79-4.318 6.15 6.15 0 00-4.319-1.79 6.142 6.142 0 00-4.319 1.79 6.15 6.15 0 00-1.79 4.319z"/></g><defs><clipPath id="clip0"><path fill="#fff" d="M0 0h300v300H0z"/></clipPath></defs></svg>